<?xml version="1.0" standalone="no"?>
<!DOCTYPE svg PUBLIC "-//W3C//DTD SVG 20010904//EN"
 "http://www.w3.org/TR/2001/REC-SVG-20010904/DTD/svg10.dtd">
<svg version="1.0" xmlns="http://www.w3.org/2000/svg"
 width="715.000000pt" height="715.000000pt" viewBox="0 0 715.000000 715.000000"
 preserveAspectRatio="xMidYMid meet">
<metadata>
Created by potrace 1.11, written by Peter Selinger 2001-2013
</metadata>
<g transform="translate(0.000000,715.000000) scale(0.100000,-0.100000)"
fill="#000000" stroke="none">
<path d="M1636 6952 c-2 -1 -61 -4 -132 -6 -71 -3 -140 -7 -154 -10 -14 -3
-43 -8 -65 -11 -54 -8 -67 -11 -85 -18 -8 -3 -49 -15 -90 -28 -41 -12 -82 -26
-90 -30 -8 -5 -46 -23 -83 -41 -105 -51 -107 -52 -107 -60 0 -5 -6 -8 -12 -8
-7 0 -39 -20 -70 -45 -32 -25 -60 -45 -64 -45 -12 0 -182 -178 -225 -235 -24
-33 -46 -62 -49 -65 -6 -6 -26 -43 -78 -140 -63 -120 -115 -284 -138 -435 -10
-65 -12 -4238 -3 -4347 6 -69 21 -152 44 -248 12 -51 71 -195 111 -268 61
-113 137 -214 232 -311 70 -71 202 -181 218 -181 3 0 18 -9 33 -20 34 -23 177
-95 211 -105 14 -4 39 -13 55 -20 68 -30 219 -60 355 -70 58 -5 4137 -5 4205
-1 198 13 369 62 545 153 47 25 92 51 101 59 9 8 19 11 22 7 4 -3 7 -2 7 4 0
12 111 89 123 85 5 -1 6 2 3 7 -3 5 16 28 42 52 26 24 72 73 102 109 30 36 58
66 62 68 5 2 8 7 8 12 0 4 20 39 45 77 25 37 45 74 45 81 0 6 4 12 9 12 5 0
12 11 15 25 4 14 11 23 16 20 6 -3 7 1 4 10 -4 8 -2 21 4 28 10 12 59 149 69
192 8 37 11 50 13 50 4 0 20 110 27 190 8 92 7 4147 -1 4255 -6 82 -18 154
-41 259 -3 13 -11 33 -16 43 -6 11 -8 26 -5 34 3 8 2 13 -3 10 -4 -3 -14 14
-21 37 -7 23 -19 56 -28 72 -9 17 -16 32 -17 35 -1 10 -70 126 -103 175 -78
112 -185 226 -282 299 -30 22 -57 43 -60 46 -22 24 -217 125 -305 158 -48 18
-167 50 -207 56 -21 3 -55 9 -75 12 -21 4 -45 7 -53 7 -8 0 -18 5 -22 11 -5 6
-8 7 -8 1 0 -8 -721 -12 -933 -5 -17 1 -241 1 -497 1 -256 0 -472 0 -480 0 -8
0 -224 0 -480 0 -256 0 -472 0 -480 0 -8 0 -224 0 -480 0 -256 -1 -514 0 -573
2 -60 1 -110 1 -111 -1z"/>
</g>
</svg>
